<svg xmlns="http://www.w3.org/2000/svg" viewBox="0 0 1477 560"><style>.st0{opacity:0.47;fill:#FFFFFF;} .st1{opacity:0.71;fill:#FFFFFF;} .st2{opacity:0.19;fill:#FFFFFF;} .st3{fill:#FFFFFF;} .st4{opacity:0.77;} .st5{opacity:0.56;fill:#FFFFFF;} .st6{opacity:0.6;fill:#FFFFFF;} .st7{opacity:0.7;fill:#FFFFFF;} .st8{opacity:0.4;fill:#FFFFFF;} .st9{opacity:0.15;fill:#FFFFFF;}</style><path d="M229.98679-924.90662c-1.92429 0-3.81149.15521-5.6543.44629-6.0132-23.2627-27.1411-40.44629-52.28319-40.44629-12.9429 0-24.8188 4.55859-34.1201 12.15131-1.4561-19.10248-17.4053-34.15131-36.87991-34.15131-20.43459 0-36.99999 16.56543-36.99999 37 0 .21582.0127.42969.0161.64453-2.4443-.41602-4.9531-.64453-7.5161-.64453-24.5766 0-44.5 19.92279-44.5 44.5 0 24.57709 19.9234 44.5 44.5 44.5 7.4238 0 14.4175-1.82819 20.5713-5.04297 6.3384 15.84467 21.8213 27.04297 39.9287 27.04297 15.74271 0 29.50249-8.4649 36.99509-21.08691 5.63281 1.99213 11.69 3.08691 18.00491 3.08691 11.18359 0 21.57329-3.39941 30.19139-9.22168 6.59131 7.99707 16.5733 13.09668 27.74609 13.09668 19.84822 0 35.93802-16.0899 35.93802-35.9375 0-19.84771-16.08979-35.9375-35.93801-35.9375zM346.98099-1187.39355c-1.92441 0-3.81158.1554-5.6543.44641-6.01321-23.2627-27.1412-40.44641-52.2832-40.44641-12.9429 0-24.81891 4.55872-34.12019 12.15149-1.45599-19.10254-17.4052-34.15149-36.87981-34.15149-20.4346 0-37 16.56555-37 37 0 .21594.01271.42981.01611.64465-2.44441-.41602-4.9532-.64465-7.51611-.64465-24.57669 0-44.49998 19.92297-44.49998 44.5 0 24.57727 19.92329 44.5 44.49998 44.5 7.42381 0 14.4174-1.828 20.57121-5.04285 6.33839 15.84473 21.8213 27.04346 39.92879 27.04346 15.7426 0 29.50241-8.46533 36.99512-21.08752 5.63278 1.99231 11.68988 3.08691 18.00488 3.08691 11.18359 0 21.57321-3.39929 30.19141-9.22156 6.59131 7.99707 16.57321 13.09656 27.74609 13.09656 19.84811 0 35.9379-16.08972 35.9379-35.9375-.00001-19.84754-16.08979-35.9375-35.9379-35.9375z" class="st0"/><path d="M1268.15222-943.6391c-5.50964 0-10.77136 1.05469-15.60925 2.95319-1.16309-1.51178-2.42578-2.94238-3.78516-4.27838-6.06738-18.37201-23.36523-31.63574-43.77051-31.63574-8.1416 0-15.78528 2.11914-22.42285 5.82233.25781-1.90527.40234-3.84668.40234-5.82233 0-23.76947-19.26953-43.03906-43.03906-43.03906-23.77051 0-43.04004 19.26959-43.04004 43.03906 0 .33691.01758.66895.02539 1.00391-3.7666.68463-7.41113 1.71094-10.90137 3.05371-9.21484-6.96289-20.68555-11.09668-33.12402-11.09668-30.37604 0-55 24.62408-55 55 0 30.37598 24.62396 55 55 55 3.37793 0 6.67773-.32031 9.8877-.90332 11.15625 12.25201 27.23633 19.94238 45.1123 19.94238 16.30176 0 31.09668-6.40619 42.04004-16.82416 7.42383 7.25 17.57129 11.72461 28.76758 11.72461 13.11133 0 24.78125-6.13281 32.3252-15.67773 2.85645.62689 5.81921.9668 8.86426.9668 4.58984 0 9-.7627 13.12305-2.1485 7.71875 11.12793 20.57715 18.41992 35.14441 18.41992 23.61145 0 42.75-19.13959 42.75-42.75-.00001-23.6103-19.13856-42.75001-42.75001-42.75001z" class="st1"/><path d="M895.98102-1151.46875c-1.92444 0-3.81165.1554-5.65436.44629-6.01318-23.2627-27.14117-40.44629-52.28314-40.44629-12.94293 0-24.81891 4.55859-34.12024 12.15149-1.45599-19.10254-17.40521-34.15149-36.87976-34.15149-20.43463 0-37 16.56555-37 37 0 .21594.0127.42969.01605.64465-2.4444-.41602-4.95319-.64465-7.51605-.64465-24.57672 0-44.5 19.92297-44.5 44.5 0 24.57727 19.92328 44.5 44.5 44.5 7.42377 0 14.41736-1.828 20.57117-5.04285 6.33838 15.84473 21.82129 27.04333 39.92883 27.04333 15.74255 0 29.50238-8.46521 36.99506-21.0874 5.63281 1.99231 11.68994 3.08691 18.00494 3.08691 11.18359 0 21.57318-3.39941 30.19135-9.22156 6.59131 7.99695 16.57324 13.09656 27.74615 13.09656 19.84808 0 35.93787-16.08972 35.93787-35.9375-.00001-19.84752-16.08979-35.93749-35.93787-35.93749z" class="st0"/><path d="M525.13379-876.12933c-.86621 0-1.72168.04303-2.57233.10651-2.86615-20.3653-20.35446-36.03619-41.51068-36.03619-7.461 0-14.46188 1.95801-20.5322 5.375-4.78131-15.83881-19.47949-27.375-36.87698-27.375-16.03223 0-29.77341 9.79694-35.57321 23.72852-3.47321-1.1181-7.17389-1.72852-11.01859-1.72852-19.84332 0-35.92972 16.086-35.92972 35.92969 0 .00885.00052.01764.00052.02643-23.25052.55078-41.93262 19.55658-41.93262 42.93939 0 23.72949 19.2363 42.96582 42.96631 42.96582 10.78519 0 20.63431-3.98334 28.1792-10.54681 6.22409 8.1181 15.92139 13.42377 26.8735 13.70508 7.40088 7.35352 17.59378 11.89844 28.85059 11.89844 18.3945 0 33.9541-12.13281 39.11621-28.83203 4.4014 9.98431 14.37888 16.95703 25.98929 16.95703 13.4014 0 24.62793-9.28711 27.61029-21.77539 2.06165.39056 4.18561.60345 6.36041.60345 18.76172 0 33.9707-15.20898 33.9707-33.9707.00001-18.76168-15.20897-33.97072-33.97069-33.97072z" class="st2"/><path d="M212.69328-529.3772c.53711 0 1.063.04285 1.5762.12396 1.6768-6.48438 7.5659-11.2735 14.5732-11.2735 3.60841 0 6.9185 1.26959 9.51181 3.3858.4052-5.3233 4.851-9.51862 10.2793-9.51862 5.6967 0 10.31339 4.61725 10.31339 10.31354 0 .06061-.0029.11914-.00439.17969.68222-.11621 1.38141-.17969 2.09531-.17969 6.85049 0 12.40381 5.55267 12.40381 12.4043 0 6.85059-5.55331 12.4043-12.40381 12.4043-2.0694 0-4.0191-.51068-5.7339-1.40533-1.76659 4.41602-6.08249 7.53714-11.1299 7.53714-4.3882 0-8.2236-2.35931-10.31149-5.8779-1.5708.55566-3.2588.86038-5.02011.86038-3.1167 0-6.01259-.9473-8.41499-2.57028-1.8374 2.2294-4.6196 3.6503-7.73441 3.6503-5.5322 0-10.01709-4.48428-10.01709-10.01663-.00002-5.5332 4.48488-10.01746 10.01707-10.01746z" class="st3"/><path d="M1136.87122-319.80359c-3.03027 0-5.92285.58008-8.58594 1.625-.63965-.83249-1.33008-1.62061-2.0791-2.35248-3.33691-10.1055-12.84766-17.39752-24.06836-17.39752-4.47656 0-8.67969 1.16461-12.33105 3.20172.14453-1.04691.22461-2.11581.22461-3.20172 0-13.06931-10.59863-23.6655-23.66992-23.6655s-23.66602 10.59619-23.66602 23.6655c0 .186.00879.36722.01367.55322-2.07129.37448-4.0752.93848-5.99316 1.6778-5.06836-3.83011-11.37305-6.1011-18.21674-6.1011-16.6983 0-30.24133 13.5386-30.24133 30.24219 0 16.70261 13.54303 30.24411 30.24133 30.24411 1.86127 0 3.67572-.1767 5.44141-.49951 6.13177 6.73932 14.97552 10.9697 24.8056 10.9697 8.96289 0 17.09863-3.52438 23.11719-9.25388 4.08008 3.98727 9.65918 6.4473 15.81543 6.4473 7.20996 0 13.62891-3.37112 17.77637-8.62061 1.57031.3457 3.19824.53171 4.87305.53171 2.52441 0 4.94824-.4194 7.21484-1.18112 4.24805 6.11761 11.31543 10.12991 19.32812 10.12991 12.98047 0 23.50391-10.52591 23.50391-23.5083-.00001-12.98341-10.52345-23.50642-23.50391-23.50642z" class="st1"/><path d="M1127.37219-346.68588c-.89941 0-1.7832.0722-2.64551.20901-2.81641-10.89111-12.70605-18.93463-24.47559-18.93463-6.05957 0-11.61914 2.13431-15.97266 5.68851-.68262-8.9429-8.14941-15.98828-17.26562-15.98828-9.56738 0-17.32129 7.75589-17.32129 17.32129 0 .1015.00586.2016.00781.30222-1.14453-.19482-2.31836-.30222-3.51758-.30222-11.50684 0-20.83398 9.32712-20.83398 20.83301 0 11.50488 9.32715 20.83148 20.83398 20.83148 3.47363 0 6.74902-.85489 9.62891-2.36029 2.96777 7.41751 10.21484 12.65961 18.69141 12.65961 7.37012 0 13.8125-3.96191 17.31934-9.871 2.6377.9321 5.47266 1.44379 8.42969 1.44379 5.23535 0 10.09863-1.5903 14.13379-4.31638 3.08496 3.74359 7.75781 6.1304 12.9873 6.1304 9.29297 0 16.8252-7.5318 16.8252-16.8233 0-9.29103-7.53223-16.82322-16.8252-16.82322z" class="st3"/><path d="M325.98727-553.22833c-.89938 0-1.78317.07233-2.64548.20898-2.81641-10.89105-12.70612-18.93457-24.47562-18.93457-6.0596 0-11.6192 2.13428-15.97269 5.68848-.68262-8.94287-8.14941-15.98828-17.26559-15.98828-9.56741 0-17.3213 7.75586-17.3213 17.32129 0 .1015.00589.2016.0078.30219-1.1445-.19476-2.3183-.30219-3.5175-.30219-11.5069 0-20.834 9.32709-20.834 20.83301 0 11.50488 9.3271 20.83148 20.834 20.83148 3.4736 0 6.74899-.85492 9.62889-2.36029 2.96771 7.41754 10.21481 12.65973 18.69141 12.65973 7.37009 0 13.8125-3.96204 17.31931-9.87109 2.6377.93207 5.47269 1.44379 8.42969 1.44379 5.23532 0 10.0986-1.59033 14.13382-4.31641 3.0849 3.74371 7.75778 6.13037 12.98727 6.13037 9.29291 0 16.82523-7.5318 16.82523-16.82324-.00001-9.29103-7.53233-16.82325-16.82524-16.82325z" class="st4 st3"/><path d="M134.05659-512.49786c1.2403 0 2.4238.23737 3.5127.66504.2617-.34082.5459-.66309.8526-.96289 1.3652-4.13568 5.2578-7.12012 9.84959-7.12012 1.832 0 3.5527.47662 5.04681 1.31049-.05861-.42865-.09181-.86615-.09181-1.31049 0-5.34857 4.33701-9.68561 9.6866-9.68561 5.34961 0 9.6855 4.33704 9.6855 9.68561 0 .07623-.00389.15039-.0049.22662.84669.15326 1.66701.38367 2.4532.68646 2.0732-1.56738 4.65421-2.49707 7.4541-2.49707 6.8349 0 12.37689 5.54095 12.37689 12.37698 0 6.83591-5.54199 12.3779-12.37689 12.3779-.7608 0-1.50301-.0723-2.2256-.2041-2.5108 2.75781-6.12891 4.4892-10.1524 4.4892-3.66789 0-6.998-1.44229-9.46089-3.78708-1.66991 1.6319-3.9541 2.6387-6.4736 2.6387-2.9502 0-5.57719-1.37991-7.27451-3.52832-.6425.1416-1.30949.2178-1.9951.2178-1.03319 0-2.02539-.17188-2.95309-.4834-1.7373 2.50391-4.63091 4.14551-7.90919 4.14551-5.31351 0-9.6201-4.30759-9.6201-9.62109s4.30659-9.62014 9.62009-9.62014z" class="st5"/><path d="M771.98102-200.00969c-1.92444 0-3.81165.1553-5.65436.4463-6.01318-23.2627-27.14117-40.44629-52.28314-40.44629-12.94293 0-24.81891 4.55859-34.12024 12.1514-1.45599-19.10251-17.40521-34.1514-36.87976-34.1514-20.43463 0-37 16.56549-37 36.99998 0 .21591.0127.4297.01605.64461-2.4444-.416-4.95319-.64461-7.51605-.64461-24.57672 0-44.5 19.92291-44.5 44.5 0 24.57721 19.92328 44.5 44.5 44.5 7.42377 0 14.41736-1.82809 20.57117-5.04291 6.33838 15.84471 21.82129 27.04341 39.92883 27.04341 15.74255 0 29.50238-8.4653 36.99506-21.0874 5.63281 1.9922 11.68994 3.0869 18.00494 3.0869 11.18359 0 21.57318-3.3994 30.19135-9.22159 6.59131 7.99699 16.57324 13.09659 27.74615 13.09659 19.84808 0 35.93787-16.0898 35.93787-35.9375-.00001-19.84758-16.08979-35.93749-35.93787-35.93749z" class="st6"/><path d="M651.04388-238.00139c-1.01898 0-2.01849.08211-2.99457.2364-3.185-12.3223-14.37604-21.42389-27.6933-21.42389-6.85553 0-13.146 2.4151-18.07281 6.43658-.77148-10.11819-9.21973-18.0899-19.53473-18.0899-10.82416 0-19.59808 8.77542-19.59808 19.59871 0 .1142.00677.22751.0083.3418-1.29492-.22069-2.62347-.3418-3.98102-.3418-13.01801 0-23.57129 10.5527-23.57129 23.5713 0 13.0175 10.55328 23.5703 23.57129 23.5703 3.93225 0 7.63684-.9678 10.896-2.6709 3.35754 8.3925 11.55865 14.32419 21.14941 14.32419 8.33893 0 15.6275-4.48338 19.5957-11.16901 2.98389 1.05472 6.19189 1.63382 9.53723 1.63382 5.92377 0 11.4267-1.79982 15.9917-4.88382 3.49115 4.23541 8.77875 6.93661 14.69617 6.93661 10.51318 0 19.03619-8.52249 19.03619-19.0352.00001-10.51268-8.523-19.03519-19.03619-19.03519z" class="st3"/><path d="M826.01367-478.35031c-1.22949 0-2.43359.0986-3.60651.2832-3.83588-14.832-17.30371-25.78561-33.33398-25.78561-8.25391 0-15.82318 2.90332-21.75677 7.74411-.92584-12.1763-11.0957-21.772-23.51172-21.772-13.03027 0-23.5899 10.5611-23.5899 23.59039 0 .13809.00793.27191.01178.4111-1.5625-.26608-3.16016-.4111-4.79395-.4111-15.66992 0-28.37305 12.70059-28.37305 28.3725 0 15.66989 12.70312 28.37311 28.37305 28.37311 4.73236 0 9.1944-1.16901 13.11615-3.2149 4.03912 10.10062 13.91211 17.2403 25.45514 17.2403 10.03912 0 18.81348-5.397 23.58887-13.4454 3.5918 1.27151 7.45111 1.96881 11.48041 1.96881 7.13092 0 13.75299-2.16699 19.24908-5.87991 4.2002 5.10013 10.56732 8.35013 17.69141 8.35013 12.65234 0 22.9101-10.25732 22.9101-22.91162-.00001-12.65631-10.25776-22.91311-22.91011-22.91311z" class="st7"/><path d="M1296.81104 175.36362c-9.50439 0-18.58105 1.81938-26.92651 5.09436-2.00647-2.60789-4.18457-5.07573-6.52966-7.38039-10.46643-31.69231-40.30566-54.57263-75.50549-54.57263-14.04456 0-27.22998 3.65552-38.68018 10.04366.44482-3.28671.69409-6.63568.69409-10.04366 0-41.00319-33.2406-74.2439-74.2439-74.2439-41.005 0-74.24548 33.2407-74.24548 74.2439 0 .58116.03033 1.15387.04382 1.73176-6.4975 1.18095-12.78436 2.95136-18.8053 5.26773-15.89581-12.01123-35.68317-19.14217-57.14001-19.14217-52.3996 0-94.87683 42.4774-94.87683 94.87685 0 52.39961 42.47723 94.87685 94.87683 94.87685 5.82703 0 11.51929-.55255 17.05664-1.55823 19.24481 21.1351 46.98352 34.40131 77.82019 34.40131 28.12122 0 53.64282-11.0509 72.52039-29.02231 12.80652 12.5065 30.31116 20.22531 49.62512 20.22531 22.61743 0 42.74854-10.57928 55.76208-27.04456 4.92749 1.08142 10.03845 1.66779 15.29114 1.66779 7.9176 0 15.52539-1.3157 22.6377-3.70624 13.31519 19.19598 35.49634 31.77493 60.62537 31.77493 40.73047 0 73.74524-33.01645 73.74524-73.74518-.00002-40.72857-33.01479-73.74518-73.74525-73.74518z" class="st8"/><path d="M452.98419 269.64929c-3.31949 0-6.57495.2677-9.75385.76987-10.37299-40.12892-46.81931-69.77121-90.19028-69.77121-22.32693 0-42.81326 7.86374-58.85831 20.9614-2.51184-32.95245-30.02472-58.91214-63.61906-58.91214-35.25037 0-63.82623 28.57587-63.82623 63.82625 0 .37225.0219.74124.02777 1.11179-4.21651-.71762-8.54427-1.11179-12.96553-1.11179-42.39545 0-76.76399 34.36748-76.76399 76.76399 0 42.3963 34.36854 76.76398 76.76399 76.76398 12.8063 0 24.87067-3.15369 35.48618-8.69934 10.93396 27.33264 37.64247 46.65009 68.87836 46.65009 27.15668 0 50.89279-14.60223 63.81778-36.37561 9.71677 3.43643 20.16565 5.32501 31.05905 5.32501 19.29208 0 37.21466-5.86407 52.08118-15.90775 11.37021 13.79526 28.58951 22.59225 47.86295 22.59225 34.23883 0 61.99426-27.75562 61.99426-61.99341-.00001-34.23795-27.75544-61.99338-61.99427-61.99338z" class="st9"/><path d="M886.22119 353.79175c-1.49426 0-2.96997.07419-4.43732.18372-4.94427-35.1308-35.11218-62.16364-71.60736-62.16364-12.87048 0-24.94727 3.37762-35.4187 9.27206-8.24792-27.32248-33.60278-47.22281-63.61407-47.22281-27.65607 0-51.36011 16.89999-61.36499 40.93246-5.99133-1.92877-12.37518-2.98172-19.00745-2.98172-34.23035 0-61.97992 27.74887-61.97992 61.97992 0 .0152.00085.03036.00085.04556-40.10785.95013-72.33511 33.73578-72.33511 74.0719 0 40.93417 33.18326 74.11743 74.11832 74.11743 18.6048 0 35.59485-6.87134 48.61005-18.19357 10.73676 14.004 27.46497 23.15649 46.35773 23.64175 12.76678 12.68503 30.34985 20.52512 49.76819 20.52512 31.73114 0 58.57196-20.92947 67.47675-49.73615 7.59259 17.22324 24.80414 29.25137 44.83246 29.25137 23.11786 0 42.48395-16.02054 47.62866-37.56329 3.55634.6738 7.22034 1.04108 10.97192 1.04108 32.36456 0 58.60059-26.23602 58.60059-58.60059s-26.23604-58.6006-58.6006-58.6006z" class="st7"/></svg>