<svg xmlns="http://www.w3.org/2000/svg" viewBox="0 0 1477 560"><style>.st0{opacity:0.47;fill:#FFFFFF;} .st1{opacity:0.71;fill:#FFFFFF;} .st2{opacity:0.19;fill:#FFFFFF;} .st3{fill:#FFFFFF;} .st4{opacity:0.77;} .st5{opacity:0.56;fill:#FFFFFF;} .st6{opacity:0.6;fill:#FFFFFF;} .st7{opacity:0.7;fill:#FFFFFF;} .st8{opacity:0.4;fill:#FFFFFF;} .st9{opacity:0.15;fill:#FFFFFF;}</style>
<path d="M229.98679-268.49899c-1.92429 0-3.81149.15518-5.6543.44629-6.0132-23.2627-27.1411-40.44629-52.28319-40.44629-12.9429 0-24.8188 4.55859-34.1201 12.15131-1.4561-19.10251-17.4053-34.15131-36.87991-34.15131-20.43459 0-36.99999 16.5654-36.99999 37 0 .21579.0127.42969.0161.6445-2.4443-.41599-4.9531-.6445-7.5161-.6445-24.5766 0-44.5 19.92279-44.5 44.5 0 24.5771 19.9234 44.5 44.5 44.5 7.4238 0 14.4175-1.8282 20.5713-5.043 6.3384 15.8447 21.8213 27.043 39.9287 27.043 15.74271 0 29.50249-8.4649 36.99509-21.0869 5.63281 1.9921 11.69 3.0869 18.00491 3.0869 11.18359 0 21.57329-3.3994 30.19139-9.22169 6.59131 7.9971 16.5733 13.09669 27.74609 13.09669 19.84822 0 35.93802-16.0899 35.93802-35.9375 0-19.8477-16.08979-35.9375-35.93801-35.9375zM346.98099-530.9859c-1.92441 0-3.81158.15533-5.6543.44629-6.01321-23.2627-27.1412-40.44629-52.2832-40.44629-12.9429 0-24.81891 4.55859-34.12019 12.15143-1.45599-19.10254-17.4052-34.15143-36.87981-34.15143-20.4346 0-37 16.56549-37 37 0 .21594.01271.42969.01611.64459-2.44441-.41595-4.9532-.64459-7.51611-.64459-24.57669 0-44.49998 19.92291-44.49998 44.50003 0 24.57718 19.92329 44.49997 44.49998 44.49997 7.42381 0 14.4174-1.82809 20.57121-5.04291 6.33839 15.84473 21.8213 27.04343 39.92879 27.04343 15.7426 0 29.50241-8.4653 36.99512-21.0874 5.63278 1.99219 11.68988 3.08688 18.00488 3.08688 11.18359 0 21.57321-3.39938 30.19141-9.22159 6.59131 7.99701 16.57321 13.09659 27.74609 13.09659 19.84811 0 35.9379-16.08978 35.9379-35.93747-.00001-19.84763-16.08979-35.93753-35.9379-35.93753z" class="st0"/><path d="M1268.15222-287.23151c-5.50964 0-10.77136 1.05472-15.60925 2.95322-1.16309-1.51181-2.42578-2.94241-3.78516-4.27841-6.06738-18.37198-23.36523-31.63568-43.77051-31.63568-8.1416 0-15.78528 2.11908-22.42285 5.8223.25781-1.9053.40234-3.84671.40234-5.8223 0-23.7695-19.26953-43.03909-43.03906-43.03909-23.77051 0-43.04004 19.26959-43.04004 43.03909 0 .33688.01758.66888.02539 1.00388-3.7666.6846-7.41113 1.71091-10.90137 3.05371-9.21484-6.96289-20.68555-11.09671-33.12402-11.09671-30.37604 0-55 24.62411-55 55 0 30.37601 24.62396 55.00002 55 55.00002 3.37793 0 6.67773-.3203 9.8877-.90331 11.15625 12.252 27.23633 19.9424 45.1123 19.9424 16.30176 0 31.09668-6.4062 42.04004-16.8242 7.42383 7.25 17.57129 11.72461 28.76758 11.72461 13.11133 0 24.78125-6.1328 32.3252-15.6777 2.85645.62691 5.81921.9668 8.86426.9668 4.58984 0 9-.7627 13.12305-2.1485 7.71875 11.1279 20.57715 18.41991 35.14441 18.41991 23.61145 0 42.75-19.1396 42.75-42.75-.00001-23.61033-19.13856-42.75004-42.75001-42.75004z" class="st1"/><path d="M895.98102-495.0611c-1.92444 0-3.81165.1553-5.65436.44632-6.01318-23.26273-27.14117-40.44632-52.28314-40.44632-12.94293 0-24.81891 4.55859-34.12024 12.15143-1.45599-19.10254-17.40521-34.15143-36.87976-34.15143-20.43463 0-37 16.56549-37 37 0 .21588.0127.42969.01605.64459-2.4444-.41595-4.95319-.64459-7.51605-.64459-24.57672 0-44.5 19.92291-44.5 44.5 0 24.57721 19.92328 44.5 44.5 44.5 7.42377 0 14.41736-1.82809 20.57117-5.04291 6.33838 15.84473 21.82129 27.04343 39.92883 27.04343 15.74255 0 29.50238-8.4653 36.99506-21.08743 5.63281 1.99222 11.68994 3.08691 18.00494 3.08691 11.18359 0 21.57318-3.39938 30.19135-9.22159 6.59131 7.99701 16.57324 13.09659 27.74615 13.09659 19.84808 0 35.93787-16.08978 35.93787-35.9375-.00001-19.84759-16.08979-35.9375-35.93787-35.9375z" class="st0"/><path d="M525.13379-219.72169c-.86621 0-1.72168.043-2.57233.10651-2.86615-20.36531-20.35446-36.03621-41.51068-36.03621-7.461 0-14.46188 1.95801-20.5322 5.375-4.78131-15.83881-19.47949-27.375-36.87698-27.375-16.03223 0-29.77341 9.79691-35.57321 23.7285-3.47321-1.11809-7.17389-1.7285-11.01859-1.7285-19.84332 0-35.92972 16.086-35.92972 35.9297 0 .0088.00052.01761.00052.0264-23.25052.55081-41.93262 19.55661-41.93262 42.93941 0 23.72949 19.2363 42.96579 42.96631 42.96579 10.78519 0 20.63431-3.98329 28.1792-10.5468 6.22409 8.1181 15.92139 13.4238 26.8735 13.70511 7.40088 7.35349 17.59378 11.89839 28.85059 11.89839 18.3945 0 33.9541-12.1328 39.11621-28.832 4.4014 9.9843 14.37888 16.957 25.98929 16.957 13.4014 0 24.62793-9.28709 27.61029-21.77539 2.06165.39059 4.18561.60349 6.36041.60349 18.76172 0 33.9707-15.20898 33.9707-33.97069s-15.20897-33.97071-33.97069-33.97071z" class="st2"/><path d="M212.69328 127.0304c.53711 0 1.063.0429 1.5762.124 1.6768-6.4844 7.5659-11.2735 14.5732-11.2735 3.60841 0 6.9185 1.2696 9.51181 3.3858.4052-5.3233 4.851-9.5186 10.2793-9.5186 5.6967 0 10.31339 4.6172 10.31339 10.3135 0 .0606-.0029.11919-.00439.1797.68222-.1162 1.38141-.1797 2.09531-.1797 6.85049 0 12.40381 5.5527 12.40381 12.4043 0 6.8506-5.55331 12.4043-12.40381 12.4043-2.0694 0-4.0191-.5107-5.7339-1.4053-1.76659 4.416-6.08249 7.53711-11.1299 7.53711-4.3882 0-8.2236-2.3593-10.31149-5.8779-1.5708.55568-3.2588.8604-5.02011.8604-3.1167 0-6.01259-.9473-8.41499-2.5703-1.8374 2.2294-4.6196 3.6503-7.73441 3.6503-5.5322 0-10.01709-4.4843-10.01709-10.0166-.00002-5.53322 4.48488-10.01751 10.01707-10.01751z" class="st3"/><path d="M1136.87122 336.60403c-3.03027 0-5.92285.58008-8.58594 1.625-.63965-.83249-1.33008-1.62061-2.0791-2.35251-3.33691-10.1055-12.84766-17.39749-24.06836-17.39749-4.47656 0-8.67969 1.16461-12.33105 3.20169.14453-1.04691.22461-2.11578.22461-3.20169 0-13.06931-10.59863-23.6655-23.66992-23.6655s-23.66602 10.59619-23.66602 23.6655c0 .186.00879.36719.01367.55319-2.07129.37451-4.0752.93851-5.99316 1.6778-5.06836-3.83008-11.37305-6.10107-18.21674-6.10107-16.6983 0-30.24133 13.53857-30.24133 30.24216 0 16.70264 13.54303 30.24414 30.24133 30.24414 1.86127 0 3.67572-.17673 5.44141-.49951 6.13177 6.73929 14.97552 10.9697 24.8056 10.9697 8.96289 0 17.09863-3.52438 23.11719-9.25391 4.08008 3.9873 9.65918 6.4473 15.81543 6.4473 7.20996 0 13.62891-3.37109 17.77637-8.62057 1.57031.3457 3.19824.53168 4.87305.53168 2.52441 0 4.94824-.4194 7.21484-1.18109 4.24805 6.11761 11.31543 10.12991 19.32812 10.12991 12.98047 0 23.50391-10.52591 23.50391-23.5083-.00001-12.98342-10.52345-23.50643-23.50391-23.50643z" class="st1"/><path d="M1127.37219 309.72174c-.89941 0-1.7832.0722-2.64551.20898-2.81641-10.89108-12.70605-18.9346-24.47559-18.9346-6.05957 0-11.61914 2.13431-15.97266 5.68851-.68262-8.9429-8.14941-15.98828-17.26562-15.98828-9.56738 0-17.32129 7.75589-17.32129 17.32129 0 .10147.00586.2016.00781.30219-1.14453-.19479-2.31836-.30219-3.51758-.30219-11.50684 0-20.83398 9.32709-20.83398 20.83301 0 11.50488 9.32715 20.83148 20.83398 20.83148 3.47363 0 6.74902-.85489 9.62891-2.36029 2.96777 7.41748 10.21484 12.65961 18.69141 12.65961 7.37012 0 13.8125-3.96191 17.31934-9.871 2.6377.9321 5.47266 1.44379 8.42969 1.44379 5.23535 0 10.09863-1.5903 14.13379-4.31641 3.08496 3.74362 7.75781 6.1304 12.9873 6.1304 9.29297 0 16.8252-7.5318 16.8252-16.8233 0-9.29099-7.53223-16.82319-16.8252-16.82319z" class="st3"/><path d="M325.98727 103.1793c-.89938 0-1.78317.0723-2.64548.209-2.81641-10.89111-12.70612-18.9346-24.47562-18.9346-6.0596 0-11.6192 2.1343-15.97269 5.6885-.68262-8.9429-8.14941-15.9883-17.26559-15.9883-9.56741 0-17.3213 7.75588-17.3213 17.3213 0 .1015.00589.20158.0078.3022-1.1445-.1948-2.3183-.3022-3.5175-.3022-11.5069 0-20.834 9.3271-20.834 20.833 0 11.5049 9.3271 20.8315 20.834 20.8315 3.4736 0 6.74899-.85492 9.62889-2.36031 2.96771 7.41751 10.21481 12.6597 18.69141 12.6597 7.37009 0 13.8125-3.96199 17.31931-9.87109 2.6377.9321 5.47269 1.44379 8.42969 1.44379 5.23532 0 10.0986-1.59029 14.13382-4.31639 3.0849 3.7437 7.75778 6.13039 12.98727 6.13039 9.29291 0 16.82523-7.53178 16.82523-16.82328-.00001-9.29102-7.53233-16.82321-16.82524-16.82321z" class="st4 st3"/><path d="M134.05659 143.90977c1.2403 0 2.4238.23732 3.5127.66501.2617-.34079.5459-.66309.8526-.96289 1.3652-4.1357 5.2578-7.12012 9.84959-7.12012 1.832 0 3.5527.47662 5.04681 1.31052-.05861-.4287-.09181-.8662-.09181-1.31052 0-5.34859 4.33701-9.68558 9.6866-9.68558 5.34961 0 9.6855 4.33699 9.6855 9.68558 0 .07622-.00389.15042-.0049.22662.84669.15329 1.66701.3837 2.4532.68649 2.0732-1.5674 4.65421-2.49712 7.4541-2.49712 6.8349 0 12.37689 5.541 12.37689 12.377 0 6.83592-5.54199 12.37791-12.37689 12.37791-.7608 0-1.50301-.0723-2.2256-.2041-2.5108 2.75781-6.12891 4.4892-10.1524 4.4892-3.66789 0-6.998-1.44229-9.46089-3.78709-1.66991 1.6319-3.9541 2.6387-6.4736 2.6387-2.9502 0-5.57719-1.3799-7.27451-3.52831-.6425.1416-1.30949.2178-1.9951.2178-1.03319 0-2.02539-.17189-2.95309-.4834-1.7373 2.50391-4.63091 4.14551-7.90919 4.14551-5.31351 0-9.6201-4.3076-9.6201-9.62111-.00001-5.31347 4.30659-9.6201 9.62009-9.6201z" class="st5"/><path d="M771.98102 456.39792c-1.92444 0-3.81165.1553-5.65436.44632-6.01318-23.2627-27.14117-40.44632-52.28314-40.44632-12.94293 0-24.81891 4.55862-34.12024 12.15143-1.45599-19.10251-17.40521-34.1514-36.87976-34.1514-20.43463 0-37 16.56549-37 36.99997 0 .21591.0127.42972.01605.64462-2.4444-.41602-4.95319-.64462-7.51605-.64462-24.57672 0-44.5 19.92291-44.5 44.5 0 24.57721 19.92328 44.50003 44.5 44.50003 7.42377 0 14.41736-1.82812 20.57117-5.04291 6.33838 15.84467 21.82129 27.0434 39.92883 27.0434 15.74255 0 29.50238-8.46533 36.99506-21.0874 5.63281 1.99219 11.68994 3.08691 18.00494 3.08691 11.18359 0 21.57318-3.39941 30.19135-9.22162 6.59131 7.99701 16.57324 13.09662 27.74615 13.09662 19.84808 0 35.93787-16.08984 35.93787-35.93753-.00001-19.8476-16.08979-35.9375-35.93787-35.9375z" class="st6"/><path d="M651.04388 418.40622c-1.01898 0-2.01849.08212-2.99457.23642-3.185-12.3223-14.37604-21.42392-27.6933-21.42392-6.85553 0-13.146 2.4151-18.07281 6.43661-.77148-10.11819-9.21973-18.0899-19.53473-18.0899-10.82416 0-19.59808 8.77539-19.59808 19.59869 0 .1142.00677.22751.0083.3418-1.29492-.22067-2.62347-.3418-3.98102-.3418-13.01801 0-23.57129 10.5527-23.57129 23.57132 0 13.01749 10.55328 23.57028 23.57129 23.57028 3.93225 0 7.63684-.9678 10.896-2.6709 3.35754 8.39252 11.55865 14.32419 21.14941 14.32419 8.33893 0 15.6275-4.48337 19.5957-11.16901 2.98389 1.05472 6.19189 1.63382 9.53723 1.63382 5.92377 0 11.4267-1.7998 15.9917-4.88382 3.49115 4.23541 8.77875 6.93661 14.69617 6.93661 10.51318 0 19.03619-8.52249 19.03619-19.03519s-8.523-19.0352-19.03619-19.0352z" class="st3"/><path d="M826.01367 178.0573c-1.22949 0-2.43359.0986-3.60651.2832-3.83588-14.832-17.30371-25.7856-33.33398-25.7856-8.25391 0-15.82318 2.90329-21.75677 7.74409-.92584-12.1763-11.0957-21.772-23.51172-21.772-13.03027 0-23.5899 10.56111-23.5899 23.59041 0 .13809.00793.2719.01178.4111-1.5625-.2661-3.16016-.4111-4.79395-.4111-15.66992 0-28.37305 12.70059-28.37305 28.3725 0 15.66989 12.70312 28.37309 28.37305 28.37309 4.73236 0 9.1944-1.16899 13.11615-3.21489 4.03912 10.1006 13.91211 17.2403 25.45514 17.2403 10.03912 0 18.81348-5.397 23.58887-13.4454 3.5918 1.2715 7.45111 1.96881 11.48041 1.96881 7.13092 0 13.75299-2.16701 19.24908-5.87991 4.2002 5.10011 10.56732 8.35011 17.69141 8.35011 12.65234 0 22.9101-10.25731 22.9101-22.91161-.00001-12.6563-10.25776-22.9131-22.91011-22.9131z" class="st7"/><path d="M1296.81104 831.77124c-9.50439 0-18.58105 1.8194-26.92651 5.09436-2.00647-2.60791-4.18457-5.07574-6.52966-7.38037-10.46643-31.69232-40.30566-54.57263-75.50549-54.57263-14.04456 0-27.22998 3.65552-38.68018 10.04364.44482-3.28668.69409-6.63568.69409-10.04364 0-41.00323-33.2406-74.2439-74.2439-74.2439-41.005 0-74.24548 33.24066-74.24548 74.2439 0 .58112.03033 1.15387.04382 1.73175-6.4975 1.18097-12.78436 2.95135-18.8053 5.2677-15.89581-12.01123-35.68317-19.14215-57.14001-19.14215-52.3996 0-94.87683 42.47742-94.87683 94.87683 0 52.3996 42.47723 94.87683 94.87683 94.87683 5.82703 0 11.51929-.55249 17.05664-1.55823 19.24481 21.13513 46.98352 34.40131 77.82019 34.40131 28.12122 0 53.64282-11.0509 72.52039-29.02228 12.80652 12.50647 30.31116 20.22528 49.62512 20.22528 22.61743 0 42.74854-10.57922 55.76208-27.04449 4.92749 1.08142 10.03845 1.66772 15.29114 1.66772 7.9176 0 15.52539-1.31567 22.6377-3.70624 13.31519 19.19598 35.49634 31.77496 60.62537 31.77496 40.73047 0 73.74524-33.01648 73.74524-73.74518-.00002-40.72857-33.01479-73.74517-73.74525-73.74517z" class="st8"/><path d="M452.98419 926.05688c-3.31949 0-6.57495.2677-9.75385.7699-10.37299-40.12891-46.81931-69.77124-90.19028-69.77124-22.32693 0-42.81326 7.86377-58.85831 20.96143-2.51184-32.95245-30.02472-58.91217-63.61906-58.91217-35.25037 0-63.82623 28.57587-63.82623 63.82629 0 .37225.0219.74121.02777 1.11176-4.21651-.71759-8.54427-1.11176-12.96553-1.11176-42.39545 0-76.76399 34.36749-76.76399 76.76398 0 42.3963 34.36854 76.76392 76.76399 76.76392 12.8063 0 24.87067-3.15369 35.48618-8.69934 10.93396 27.33264 37.64247 46.65015 68.87836 46.65015 27.15668 0 50.89279-14.60229 63.81778-36.37561 9.71677 3.4364 20.16565 5.32495 31.05905 5.32495 19.29208 0 37.21466-5.86401 52.08118-15.90771 11.37021 13.79529 28.58951 22.59229 47.86295 22.59229 34.23883 0 61.99426-27.75562 61.99426-61.99341-.00001-34.23799-27.75544-61.99343-61.99427-61.99343z" class="st9"/><path d="M886.22119 1010.1994c-1.49426 0-2.96997.07416-4.43732.18372-4.94427-35.13086-35.11218-62.1637-71.60736-62.1637-12.87048 0-24.94727 3.37762-35.4187 9.27209-8.24792-27.32251-33.60278-47.22284-63.61407-47.22284-27.65607 0-51.36011 16.90002-61.36499 40.9325-5.99133-1.92877-12.37518-2.98175-19.00745-2.98175-34.23035 0-61.97992 27.7489-61.97992 61.97998 0 .01514.00085.03033.00085.04553-40.10785.95013-72.33511 33.73578-72.33511 74.07184 0 40.9342 33.18326 74.11743 74.11832 74.11743 18.6048 0 35.59485-6.87122 48.61005-18.19348 10.73676 14.00391 27.46497 23.15649 46.35773 23.64172 12.76678 12.68506 30.34985 20.52515 49.76819 20.52515 31.73114 0 58.57196-20.92957 67.47675-49.73621 7.59259 17.22327 24.80414 29.25146 44.83246 29.25146 23.11786 0 42.48395-16.02063 47.62866-37.56335 3.55634.67383 7.22034 1.04102 10.97192 1.04102 32.36456 0 58.60059-26.23596 58.60059-58.60059-.00001-32.3645-26.23604-58.60052-58.6006-58.60052z" class="st7"/></svg>